<svg id="Layer_1" data-name="Layer 1" xmlns="http://www.w3.org/2000/svg" viewBox="0 0 901.79 132.77"><defs><style>.cls-1{fill:#7577ff;}</style></defs><path class="cls-1" d="M17.07,122.92V8.82H40.88V61.44L77,21.81a39.84,39.84,0,0,1,29.43-13h11.48L65.22,65.08l56,57.84H108A39.83,39.83,0,0,1,79.4,110.78L40.88,70.94v52Z"/><path class="cls-1" d="M170.3,122.92V32.64A23.81,23.81,0,0,1,194.11,8.82h0v94H248.4v20.12Z"/><path class="cls-1" d="M311.62,122.92V96a66.87,66.87,0,0,0-10.46-35.9L268.54,8.82h27.84l27.32,43L351,8.82h27.84L346.24,60.06A66.87,66.87,0,0,0,335.78,96v27Z"/><path class="cls-1" d="M426.15,122.92V20.1A11.28,11.28,0,0,1,437.43,8.82h65.76V30.37H450V55.1h42.73V76.65H451.51A1.54,1.54,0,0,0,450,78.2v44.72Z"/><path class="cls-1" d="M583.23,122.92V29H543.48V8.82H646.79V29H607v94Z"/><path class="cls-1" d="M697.58,122.92V8.82h0a23.81,23.81,0,0,1,23.81,23.81v90.29Z"/><path class="cls-1" d="M835.39,125.3c-36.42,0-59.71-23.29-59.71-56.1,0-.47.18-5.23.35-6.66h45.35V79.18h-20c3.86,18.07,16.11,26.15,32.4,25.84,24-.32,35.9-15.38,35.9-39.15s-11.91-39.46-35.9-39.14c-16.11.16-26.44,8.71-31,22l-26,3.75C783.11,27.63,803,6.44,835.39,6.44c32.92,0,59.54,21.56,59.54,59.43C894.93,104.54,867.26,125.3,835.39,125.3Z"/></svg>