<svg id="Layer_1" data-name="Layer 1" xmlns="http://www.w3.org/2000/svg" viewBox="0 0 294 186"><defs><style>.cls-1{fill:#7577ff;}</style></defs><path class="cls-1" d="M177.6,64.35h40.14V81h-20c3.85,18.08,16.11,26.16,32.39,25.84,24-.32,35.9-15.37,35.9-39.15s-11.91-39.46-35.9-39.14c-16.11.16-26.44,8.72-31,22l-26,3.75c6.3-24.89,26.19-46.06,58.58-46.06,32.92,0,59.54,21.54,59.54,59.42,0,38.67-27.67,59.43-59.54,59.43-30.91,0-52.37-16.78-58.14-41.91H124.36v24.71h42.73v21.56H125.91a1.55,1.55,0,0,0-1.55,1.55v44.72H100.55V149.1a39.81,39.81,0,0,1-25.32-12L36.72,97.27v52H12.9V35.15H36.72V87.76L72.85,48.14a39.78,39.78,0,0,1,29.43-13h11.48L61.06,91.41l39.49,40.76V74.92a11.28,11.28,0,0,1,11.28-11.27Z"/></svg>