<svg id="Layer_1" data-name="Layer 1" xmlns="http://www.w3.org/2000/svg" viewBox="0 0 440 385"><defs><style>.cls-1{fill:#7577ff;}</style></defs><path class="cls-1" d="M22.57,246.92c62.27-10,108.06-36.15,171.06-85.39,65.26-51,98.6-103.14,121-139.93,35.85.67,80.06-3.11,113.74-1.29a751.52,751.52,0,0,1-57.57,80.61c-24.18,29.53-54.08,55-77.19,75.63-18,16-9.88,21.78-2.38,31.2,41,51.55,96.09,111,135,161.58-34.14,3.37-83.87.31-122.59.27a1.56,1.56,0,0,1-1.21-.57c-20.67-25.29-77.28-101.29-91.07-116.88a1.25,1.25,0,0,0-1.58-.24C176.72,272.09,87.64,338.57,44,367.72c-10.16,6.79-24.14-.66-24.16-12.88C19.84,323.59,22.31,250.84,22.57,246.92Z"/><path class="cls-1" d="M44.27,226.35c37.06-11.18,91.53-36.59,141.32-74.75C245.16,106,281.79,52.32,298.76,21.49c-14.6-1.56-148.36-.39-217.59-.69A23.47,23.47,0,0,0,57.59,44.27V55.6H178.46c4.63,0,6.52,2.51,7.42,5.54,1,3.33-.83,7.75-1.79,10-3.58,8.26-26.19,37.58-53,63C105.72,158.16,37.39,208.24,9.72,203,9.72,203,28,231.27,44.27,226.35Z"/></svg>